<svg width="20" height="20" viewBox="0 0 20 20" fill="none" xmlns="http://www.w3.org/2000/svg">
<path fill-rule="evenodd" clip-rule="evenodd" d="M0.0792528 17.9924L8.88928 9.1587C8.88928 9.1587 10.0001 7.74541 11.3582 9.30371L19.5408 17.6356C19.8862 17.9877 20.0685 18.4852 19.9761 18.9707C19.9149 19.2964 19.7326 19.6216 19.2966 19.8011C18.2074 20.2492 17.554 19.5322 17.554 19.5322L10.0411 11.9733L2.4753 19.5322C2.4753 19.5322 1.57973 20.372 0.708437 19.8011C-0.162853 19.2302 -0.0298396 18.1018 0.0792528 17.9924Z" fill="#A5A5A5"/>
<path fill-rule="evenodd" clip-rule="evenodd" d="M0.0792528 2.00756L8.88928 10.8413C8.88928 10.8413 10.0001 12.2546 11.3582 10.6963L19.5408 2.36442C19.8862 2.01228 20.0685 1.51477 19.9761 1.02926C19.9149 0.703645 19.7326 0.378394 19.2966 0.19887C18.2074 -0.249213 17.554 0.467792 17.554 0.467792L10.0411 8.02669L2.4753 0.467792C2.4753 0.467792 1.57973 -0.372045 0.708437 0.19887C-0.162853 0.769785 -0.0298396 1.89817 0.0792528 2.00756Z" fill="#A5A5A5"/>
</svg>
