<svg width="541" height="14" viewBox="0 0 541 14" fill="none" xmlns="http://www.w3.org/2000/svg">
<rect width="1" height="14" rx="0.5" fill="#08B7F6"/>
<rect x="120" width="1" height="14" rx="0.5" fill="#DE9852"/>
<rect x="117" y="3" width="1" height="8" rx="0.5" fill="#DE9852"/>
<rect x="102" y="3" width="1" height="8" rx="0.5" fill="#DE9852"/>
<rect x="111" y="3" width="1" height="8" rx="0.5" fill="#DE9852"/>
<rect x="96" y="3" width="1" height="8" rx="0.5" fill="#DE9852"/>
<rect x="114" y="3" width="1" height="8" rx="0.5" fill="#DE9852"/>
<rect x="99" y="3" width="1" height="8" rx="0.5" fill="#DE9852"/>
<rect x="108" y="3" width="1" height="8" rx="0.5" fill="#DE9852"/>
<rect x="93" y="3" width="1" height="8" rx="0.5" fill="#DE9852"/>
<rect width="1" height="12" rx="0.5" transform="matrix(-1 0 0 1 106 1)" fill="#DE9852"/>
<rect width="1" height="12" rx="0.5" transform="matrix(-1 0 0 1 91 1)" fill="#DE9852"/>
<rect x="60" width="1" height="14" rx="0.5" fill="#DE9852"/>
<rect x="57" y="3" width="1" height="8" rx="0.5" fill="#DE9852"/>
<rect x="42" y="3" width="1" height="8" rx="0.5" fill="#DE9852"/>
<rect x="51" y="3" width="1" height="8" rx="0.5" fill="#DE9852"/>
<rect x="36" y="3" width="1" height="8" rx="0.5" fill="#DE9852"/>
<rect x="54" y="3" width="1" height="8" rx="0.5" fill="#DE9852"/>
<rect x="39" y="3" width="1" height="8" rx="0.5" fill="#DE9852"/>
<rect x="48" y="3" width="1" height="8" rx="0.5" fill="#DE9852"/>
<rect x="33" y="3" width="1" height="8" rx="0.5" fill="#DE9852"/>
<rect width="1" height="12" rx="0.5" transform="matrix(-1 0 0 1 46 1)" fill="#DE9852"/>
<rect width="1" height="12" rx="0.5" transform="matrix(-1 0 0 1 31 1)" fill="#DE9852"/>
<rect x="90" width="1" height="14" rx="0.5" fill="#DE9852"/>
<rect x="87" y="3" width="1" height="8" rx="0.5" fill="#DE9852"/>
<rect x="72" y="3" width="1" height="8" rx="0.5" fill="#DE9852"/>
<rect x="81" y="3" width="1" height="8" rx="0.5" fill="#DE9852"/>
<rect x="66" y="3" width="1" height="8" rx="0.5" fill="#DE9852"/>
<rect x="84" y="3" width="1" height="8" rx="0.5" fill="#DE9852"/>
<rect x="69" y="3" width="1" height="8" rx="0.5" fill="#DE9852"/>
<rect x="78" y="3" width="1" height="8" rx="0.5" fill="#DE9852"/>
<rect x="63" y="3" width="1" height="8" rx="0.5" fill="#DE9852"/>
<rect width="1" height="12" rx="0.5" transform="matrix(-1 0 0 1 76 1)" fill="#DE9852"/>
<rect width="1" height="12" rx="0.5" transform="matrix(-1 0 0 1 61 1)" fill="#DE9852"/>
<rect x="30" width="1" height="14" rx="0.5" fill="#DE9852"/>
<rect x="27" y="3" width="1" height="8" rx="0.5" fill="#DE9852"/>
<rect x="12" y="3" width="1" height="8" rx="0.5" fill="#DE9852"/>
<rect x="21" y="3" width="1" height="8" rx="0.5" fill="#DE9852"/>
<rect x="6" y="3" width="1" height="8" rx="0.5" fill="#DE9852"/>
<rect x="24" y="3" width="1" height="8" rx="0.5" fill="#DE9852"/>
<rect x="9" y="3" width="1" height="8" rx="0.5" fill="#DE9852"/>
<rect x="18" y="3" width="1" height="8" rx="0.5" fill="#DE9852"/>
<rect x="3" y="3" width="1" height="8" rx="0.5" fill="#DE9852"/>
<rect width="1" height="12" rx="0.5" transform="matrix(-1 0 0 1 16 1)" fill="#DE9852"/>
<rect width="1" height="12" rx="0.5" transform="matrix(-1 0 0 1 1 1)" fill="#DE9852"/>
<rect x="360" width="1" height="14" rx="0.5" fill="#DE9852"/>
<rect x="357" y="3" width="1" height="8" rx="0.5" fill="#DE9852"/>
<rect x="342" y="3" width="1" height="8" rx="0.5" fill="#DE9852"/>
<rect x="351" y="3" width="1" height="8" rx="0.5" fill="#DE9852"/>
<rect x="336" y="3" width="1" height="8" rx="0.5" fill="#DE9852"/>
<rect x="354" y="3" width="1" height="8" rx="0.5" fill="#DE9852"/>
<rect x="339" y="3" width="1" height="8" rx="0.5" fill="#DE9852"/>
<rect x="348" y="3" width="1" height="8" rx="0.5" fill="#DE9852"/>
<rect x="333" y="3" width="1" height="8" rx="0.5" fill="#DE9852"/>
<rect width="1" height="12" rx="0.5" transform="matrix(-1 0 0 1 346 1)" fill="#DE9852"/>
<rect width="1" height="12" rx="0.5" transform="matrix(-1 0 0 1 331 1)" fill="#DE9852"/>
<rect x="300" width="1" height="14" rx="0.5" fill="#DE9852"/>
<rect x="297" y="3" width="1" height="8" rx="0.5" fill="#DE9852"/>
<rect x="282" y="3" width="1" height="8" rx="0.5" fill="#DE9852"/>
<rect x="291" y="3" width="1" height="8" rx="0.5" fill="#DE9852"/>
<rect x="276" y="3" width="1" height="8" rx="0.5" fill="#DE9852"/>
<rect x="294" y="3" width="1" height="8" rx="0.5" fill="#DE9852"/>
<rect x="279" y="3" width="1" height="8" rx="0.5" fill="#DE9852"/>
<rect x="288" y="3" width="1" height="8" rx="0.5" fill="#DE9852"/>
<rect x="273" y="3" width="1" height="8" rx="0.5" fill="#DE9852"/>
<rect width="1" height="12" rx="0.5" transform="matrix(-1 0 0 1 286 1)" fill="#DE9852"/>
<rect width="1" height="12" rx="0.5" transform="matrix(-1 0 0 1 271 1)" fill="#DE9852"/>
<rect x="330" width="1" height="14" rx="0.5" fill="#DE9852"/>
<rect x="327" y="3" width="1" height="8" rx="0.5" fill="#DE9852"/>
<rect x="312" y="3" width="1" height="8" rx="0.5" fill="#DE9852"/>
<rect x="321" y="3" width="1" height="8" rx="0.5" fill="#DE9852"/>
<rect x="306" y="3" width="1" height="8" rx="0.5" fill="#DE9852"/>
<rect x="324" y="3" width="1" height="8" rx="0.5" fill="#DE9852"/>
<rect x="309" y="3" width="1" height="8" rx="0.5" fill="#DE9852"/>
<rect x="318" y="3" width="1" height="8" rx="0.5" fill="#DE9852"/>
<rect x="303" y="3" width="1" height="8" rx="0.5" fill="#DE9852"/>
<rect width="1" height="12" rx="0.5" transform="matrix(-1 0 0 1 316 1)" fill="#DE9852"/>
<rect width="1" height="12" rx="0.5" transform="matrix(-1 0 0 1 301 1)" fill="#DE9852"/>
<rect x="270" width="1" height="14" rx="0.5" fill="#DE9852"/>
<rect x="267" y="3" width="1" height="8" rx="0.5" fill="#DE9852"/>
<rect x="252" y="3" width="1" height="8" rx="0.5" fill="#DE9852"/>
<rect x="261" y="3" width="1" height="8" rx="0.5" fill="#DE9852"/>
<rect x="246" y="3" width="1" height="8" rx="0.5" fill="#DE9852"/>
<rect x="264" y="3" width="1" height="8" rx="0.5" fill="#DE9852"/>
<rect x="249" y="3" width="1" height="8" rx="0.5" fill="#DE9852"/>
<rect x="258" y="3" width="1" height="8" rx="0.5" fill="#DE9852"/>
<rect x="243" y="3" width="1" height="8" rx="0.5" fill="#DE9852"/>
<rect width="1" height="12" rx="0.5" transform="matrix(-1 0 0 1 256 1)" fill="#DE9852"/>
<rect width="1" height="12" rx="0.5" transform="matrix(-1 0 0 1 241 1)" fill="#DE9852"/>
<rect x="240" width="1" height="14" rx="0.5" fill="#DE9852"/>
<rect x="237" y="3" width="1" height="8" rx="0.5" fill="#DE9852"/>
<rect x="222" y="3" width="1" height="8" rx="0.5" fill="#DE9852"/>
<rect x="231" y="3" width="1" height="8" rx="0.5" fill="#DE9852"/>
<rect x="216" y="3" width="1" height="8" rx="0.5" fill="#DE9852"/>
<rect x="234" y="3" width="1" height="8" rx="0.5" fill="#DE9852"/>
<rect x="219" y="3" width="1" height="8" rx="0.5" fill="#DE9852"/>
<rect x="228" y="3" width="1" height="8" rx="0.5" fill="#DE9852"/>
<rect x="213" y="3" width="1" height="8" rx="0.5" fill="#DE9852"/>
<rect width="1" height="12" rx="0.5" transform="matrix(-1 0 0 1 226 1)" fill="#DE9852"/>
<rect width="1" height="12" rx="0.5" transform="matrix(-1 0 0 1 211 1)" fill="#DE9852"/>
<rect x="180" width="1" height="14" rx="0.5" fill="#DE9852"/>
<rect x="177" y="3" width="1" height="8" rx="0.5" fill="#DE9852"/>
<rect x="162" y="3" width="1" height="8" rx="0.5" fill="#DE9852"/>
<rect x="171" y="3" width="1" height="8" rx="0.5" fill="#DE9852"/>
<rect x="156" y="3" width="1" height="8" rx="0.5" fill="#DE9852"/>
<rect x="174" y="3" width="1" height="8" rx="0.5" fill="#DE9852"/>
<rect x="159" y="3" width="1" height="8" rx="0.5" fill="#DE9852"/>
<rect x="168" y="3" width="1" height="8" rx="0.5" fill="#DE9852"/>
<rect x="153" y="3" width="1" height="8" rx="0.5" fill="#DE9852"/>
<rect width="1" height="12" rx="0.5" transform="matrix(-1 0 0 1 166 1)" fill="#DE9852"/>
<rect width="1" height="12" rx="0.5" transform="matrix(-1 0 0 1 151 1)" fill="#DE9852"/>
<rect x="210" width="1" height="14" rx="0.5" fill="#DE9852"/>
<rect x="207" y="3" width="1" height="8" rx="0.5" fill="#DE9852"/>
<rect x="192" y="3" width="1" height="8" rx="0.5" fill="#DE9852"/>
<rect x="201" y="3" width="1" height="8" rx="0.5" fill="#DE9852"/>
<rect x="186" y="3" width="1" height="8" rx="0.5" fill="#DE9852"/>
<rect x="204" y="3" width="1" height="8" rx="0.5" fill="#DE9852"/>
<rect x="189" y="3" width="1" height="8" rx="0.5" fill="#DE9852"/>
<rect x="198" y="3" width="1" height="8" rx="0.5" fill="#DE9852"/>
<rect x="183" y="3" width="1" height="8" rx="0.5" fill="#DE9852"/>
<rect width="1" height="12" rx="0.5" transform="matrix(-1 0 0 1 196 1)" fill="#DE9852"/>
<rect width="1" height="12" rx="0.5" transform="matrix(-1 0 0 1 181 1)" fill="#DE9852"/>
<rect x="150" width="1" height="14" rx="0.5" fill="#DE9852"/>
<rect x="147" y="3" width="1" height="8" rx="0.5" fill="#DE9852"/>
<rect x="132" y="3" width="1" height="8" rx="0.5" fill="#DE9852"/>
<rect x="141" y="3" width="1" height="8" rx="0.5" fill="#DE9852"/>
<rect x="126" y="3" width="1" height="8" rx="0.5" fill="#DE9852"/>
<rect x="144" y="3" width="1" height="8" rx="0.5" fill="#DE9852"/>
<rect x="129" y="3" width="1" height="8" rx="0.5" fill="#DE9852"/>
<rect x="138" y="3" width="1" height="8" rx="0.5" fill="#DE9852"/>
<rect x="123" y="3" width="1" height="8" rx="0.5" fill="#DE9852"/>
<rect width="1" height="12" rx="0.5" transform="matrix(-1 0 0 1 136 1)" fill="#DE9852"/>
<rect width="1" height="12" rx="0.5" transform="matrix(-1 0 0 1 121 1)" fill="#DE9852"/>
<rect x="480" width="1" height="14" rx="0.5" fill="#DE9852"/>
<rect x="477" y="3" width="1" height="8" rx="0.5" fill="#DE9852"/>
<rect x="462" y="3" width="1" height="8" rx="0.5" fill="#DE9852"/>
<rect x="471" y="3" width="1" height="8" rx="0.5" fill="#DE9852"/>
<rect x="456" y="3" width="1" height="8" rx="0.5" fill="#DE9852"/>
<rect x="474" y="3" width="1" height="8" rx="0.5" fill="#DE9852"/>
<rect x="459" y="3" width="1" height="8" rx="0.5" fill="#DE9852"/>
<rect x="468" y="3" width="1" height="8" rx="0.5" fill="#DE9852"/>
<rect x="453" y="3" width="1" height="8" rx="0.5" fill="#DE9852"/>
<rect width="1" height="12" rx="0.5" transform="matrix(-1 0 0 1 466 1)" fill="#DE9852"/>
<rect width="1" height="12" rx="0.5" transform="matrix(-1 0 0 1 451 1)" fill="#DE9852"/>
<rect x="420" width="1" height="14" rx="0.5" fill="#DE9852"/>
<rect x="417" y="3" width="1" height="8" rx="0.5" fill="#DE9852"/>
<rect x="402" y="3" width="1" height="8" rx="0.5" fill="#DE9852"/>
<rect x="411" y="3" width="1" height="8" rx="0.5" fill="#DE9852"/>
<rect x="396" y="3" width="1" height="8" rx="0.5" fill="#DE9852"/>
<rect x="414" y="3" width="1" height="8" rx="0.5" fill="#DE9852"/>
<rect x="399" y="3" width="1" height="8" rx="0.5" fill="#DE9852"/>
<rect x="408" y="3" width="1" height="8" rx="0.5" fill="#DE9852"/>
<rect x="393" y="3" width="1" height="8" rx="0.5" fill="#DE9852"/>
<rect width="1" height="12" rx="0.5" transform="matrix(-1 0 0 1 406 1)" fill="#DE9852"/>
<rect width="1" height="12" rx="0.5" transform="matrix(-1 0 0 1 391 1)" fill="#DE9852"/>
<rect x="450" width="1" height="14" rx="0.5" fill="#DE9852"/>
<rect x="447" y="3" width="1" height="8" rx="0.5" fill="#DE9852"/>
<rect x="432" y="3" width="1" height="8" rx="0.5" fill="#DE9852"/>
<rect x="441" y="3" width="1" height="8" rx="0.5" fill="#DE9852"/>
<rect x="426" y="3" width="1" height="8" rx="0.5" fill="#DE9852"/>
<rect x="444" y="3" width="1" height="8" rx="0.5" fill="#DE9852"/>
<rect x="429" y="3" width="1" height="8" rx="0.5" fill="#DE9852"/>
<rect x="438" y="3" width="1" height="8" rx="0.5" fill="#DE9852"/>
<rect x="423" y="3" width="1" height="8" rx="0.5" fill="#DE9852"/>
<rect width="1" height="12" rx="0.5" transform="matrix(-1 0 0 1 436 1)" fill="#DE9852"/>
<rect width="1" height="12" rx="0.5" transform="matrix(-1 0 0 1 421 1)" fill="#DE9852"/>
<rect x="390" width="1" height="14" rx="0.5" fill="#DE9852"/>
<rect x="387" y="3" width="1" height="8" rx="0.5" fill="#DE9852"/>
<rect x="372" y="3" width="1" height="8" rx="0.5" fill="#DE9852"/>
<rect x="381" y="3" width="1" height="8" rx="0.5" fill="#DE9852"/>
<rect x="366" y="3" width="1" height="8" rx="0.5" fill="#DE9852"/>
<rect x="384" y="3" width="1" height="8" rx="0.5" fill="#DE9852"/>
<rect x="369" y="3" width="1" height="8" rx="0.5" fill="#DE9852"/>
<rect x="378" y="3" width="1" height="8" rx="0.5" fill="#DE9852"/>
<rect x="363" y="3" width="1" height="8" rx="0.5" fill="#DE9852"/>
<rect width="1" height="12" rx="0.5" transform="matrix(-1 0 0 1 376 1)" fill="#DE9852"/>
<rect width="1" height="12" rx="0.5" transform="matrix(-1 0 0 1 361 1)" fill="#DE9852"/>
<rect y="6" width="541" height="2" rx="1" fill="#DE9852"/>
<rect x="540" width="1" height="14" rx="0.5" fill="#DE9852"/>
<rect x="537" y="3" width="1" height="8" rx="0.5" fill="#DE9852"/>
<rect x="522" y="3" width="1" height="8" rx="0.5" fill="#DE9852"/>
<rect x="531" y="3" width="1" height="8" rx="0.5" fill="#DE9852"/>
<rect x="516" y="3" width="1" height="8" rx="0.5" fill="#DE9852"/>
<rect x="534" y="3" width="1" height="8" rx="0.5" fill="#DE9852"/>
<rect x="519" y="3" width="1" height="8" rx="0.5" fill="#DE9852"/>
<rect x="528" y="3" width="1" height="8" rx="0.5" fill="#DE9852"/>
<rect x="513" y="3" width="1" height="8" rx="0.5" fill="#DE9852"/>
<rect width="1" height="12" rx="0.5" transform="matrix(-1 0 0 1 526 1)" fill="#DE9852"/>
<rect width="1" height="12" rx="0.5" transform="matrix(-1 0 0 1 511 1)" fill="#DE9852"/>
<rect width="1" height="12" rx="0.5" transform="matrix(-1 0 0 1 541 1)" fill="#DE9852"/>
<rect x="510" width="1" height="14" rx="0.5" fill="#DE9852"/>
<rect x="507" y="3" width="1" height="8" rx="0.5" fill="#DE9852"/>
<rect x="492" y="3" width="1" height="8" rx="0.5" fill="#DE9852"/>
<rect x="501" y="3" width="1" height="8" rx="0.5" fill="#DE9852"/>
<rect x="486" y="3" width="1" height="8" rx="0.5" fill="#DE9852"/>
<rect x="504" y="3" width="1" height="8" rx="0.5" fill="#DE9852"/>
<rect x="489" y="3" width="1" height="8" rx="0.5" fill="#DE9852"/>
<rect x="498" y="3" width="1" height="8" rx="0.5" fill="#DE9852"/>
<rect x="483" y="3" width="1" height="8" rx="0.5" fill="#DE9852"/>
<rect width="1" height="12" rx="0.5" transform="matrix(-1 0 0 1 496 1)" fill="#DE9852"/>
<rect width="1" height="12" rx="0.5" transform="matrix(-1 0 0 1 481 1)" fill="#DE9852"/>
</svg>
